<mxfile host="app.diagrams.net" agent="Mozilla/5.0 (Windows NT 10.0; Win64; x64) AppleWebKit/537.36 (KHTML, like Gecko) Chrome/130.0.0.0 Safari/537.36" version="24.8.3">
  <diagram name="Page-1" id="qrALxvsxDObh7wOZHiiR">
    <mxGraphModel dx="1383" dy="712" grid="1" gridSize="10" guides="1" tooltips="1" connect="1" arrows="1" fold="1" page="1" pageScale="1" pageWidth="850" pageHeight="1100" math="0" shadow="0">
      <root>
        <mxCell id="0" />
        <mxCell id="1" parent="0" />
        <mxCell id="qu0P8Vnk07hLF424o6CE-1" value="Vertical Container" style="swimlane;whiteSpace=wrap;html=1;" vertex="1" parent="1">
          <mxGeometry x="250" y="120" width="350" height="150" as="geometry" />
        </mxCell>
        <mxCell id="qu0P8Vnk07hLF424o6CE-2" value="cloudflare" parent="0" />
        <mxCell id="qu0P8Vnk07hLF424o6CE-3" value="Namecheap DNS" style="image;sketch=0;aspect=fixed;html=1;points=[];align=center;fontSize=12;image=img/lib/mscae/DNS.svg;" vertex="1" parent="qu0P8Vnk07hLF424o6CE-2">
          <mxGeometry x="400" y="10" width="50" height="50" as="geometry" />
        </mxCell>
      </root>
    </mxGraphModel>
  </diagram>
</mxfile>
